<?xml version="1.0" encoding="UTF-8" standalone="no"?>
<svg
   aria-label="VK"
   role="img"
   viewBox="0 0 512 512"
   version="1.1"
   id="svg16"
   sodipodi:docname="ds.svg"
   inkscape:version="1.2.2 (732a01da63, 2022-12-09)"
   xml:space="preserve"
   xmlns:inkscape="http://www.inkscape.org/namespaces/inkscape"
   xmlns:sodipodi="http://sodipodi.sourceforge.net/DTD/sodipodi-0.dtd"
   xmlns="http://www.w3.org/2000/svg"
   xmlns:svg="http://www.w3.org/2000/svg"><defs
     id="defs20"><rect
       x="-7.622196"
       y="-3.3152302"
       width="30.007084"
       height="15.726092"
       id="rect578" /></defs><sodipodi:namedview
     id="namedview18"
     pagecolor="#ffffff"
     bordercolor="#000000"
     borderopacity="0.25"
     inkscape:showpageshadow="2"
     inkscape:pageopacity="0"
     inkscape:pagecheckerboard="true"
     inkscape:deskcolor="#d1d1d1"
     showgrid="false"
     inkscape:zoom="1"
     inkscape:cx="93.499997"
     inkscape:cy="120"
     inkscape:window-width="1920"
     inkscape:window-height="1027"
     inkscape:window-x="-8"
     inkscape:window-y="22"
     inkscape:window-maximized="1"
     inkscape:current-layer="svg16"><inkscape:page
       x="0"
       y="0"
       width="512"
       height="512"
       id="page825" /><inkscape:page
       x="522"
       y="0"
       width="16"
       height="16"
       id="page827" /></sodipodi:namedview><path
     id="rect692"
     style="display:inline;fill:#ffffff"
     inkscape:label="rect692"
     d="M 100 0 C 44.60011 0 0 44.60011 0 100 L 0 412 C 0 467.39988 44.60011 512 100 512 L 412 512 C 467.39988 512 512 467.39988 512 412 L 512 100 C 512 44.60011 467.39988 0 412 0 L 100 0 z M 120 50 L 392 50 C 430.77992 50 462 81.220078 462 120 L 462 392 C 462 430.77992 430.77992 462 392 462 L 120 462 C 81.220078 462 50 430.77992 50 392 L 50 120 C 50 81.220078 81.220078 50 120 50 z M 201.38477 106.14258 A 315.06465 315.06465 0 0 0 121.44727 131.31055 C 70.89727 207.70502 57.191489 282.20314 64.044922 355.63672 A 319.32382 319.32382 0 0 0 162.02734 405.83594 A 244.90408 244.90408 0 0 0 183.01367 371.2793 A 206.93907 206.93907 0 0 1 149.96484 355.18945 C 152.7261 353.1374 155.44409 350.99025 158.05664 348.7832 C 221.77139 378.57691 290.9847 378.57691 353.94336 348.7832 C 356.6068 350.99079 359.30565 353.13732 362.03711 355.18945 C 351.56169 361.50079 340.47019 366.92348 328.93164 371.29883 A 242.38728 242.38728 0 0 0 349.91797 405.85742 A 318.66561 318.66561 0 0 0 447.95703 355.61719 C 455.98962 270.51071 434.22747 196.69116 390.39648 131.25391 A 315.54871 315.54871 0 0 0 310.51758 106.14258 C 307.0715 112.35792 303.06543 120.74169 300.27734 127.38281 A 293.78809 293.78809 0 0 0 211.74219 127.38281 A 224.24691 224.24691 0 0 0 201.38477 106.14258 z M 191.68555 231.24805 C 211.14168 231.24805 226.82455 249.09777 226.49609 270.87891 C 226.49909 292.619 211.14168 310.46875 191.68555 310.46875 C 172.5579 310.46875 156.87695 292.61901 156.87695 270.87891 C 156.87695 249.1365 172.22812 231.24805 191.68555 231.24805 z M 320.31445 231.24805 C 339.77291 231.24805 355.45388 249.09777 355.12305 270.87891 C 355.12305 292.619 339.77291 310.46875 320.31445 310.46875 C 301.18677 310.46875 285.50391 292.61901 285.50391 270.87891 C 285.50391 249.1365 300.8596 231.24805 320.31445 231.24805 z " /></svg>
