<?xml version="1.0" encoding="UTF-8" standalone="no"?>
<svg
   aria-label="VK"
   role="img"
   viewBox="0 0 512 512"
   version="1.1"
   id="svg16"
   sodipodi:docname="vk.svg"
   inkscape:version="1.2.2 (732a01da63, 2022-12-09)"
   xmlns:inkscape="http://www.inkscape.org/namespaces/inkscape"
   xmlns:sodipodi="http://sodipodi.sourceforge.net/DTD/sodipodi-0.dtd"
   xmlns="http://www.w3.org/2000/svg"
   xmlns:svg="http://www.w3.org/2000/svg">
  <defs
     id="defs20" />
  <sodipodi:namedview
     id="namedview18"
     pagecolor="#ffffff"
     bordercolor="#000000"
     borderopacity="0.25"
     inkscape:showpageshadow="2"
     inkscape:pageopacity="0"
     inkscape:pagecheckerboard="true"
     inkscape:deskcolor="#d1d1d1"
     showgrid="false"
     inkscape:zoom="1.4142136"
     inkscape:cx="345.42166"
     inkscape:cy="282.13561"
     inkscape:window-width="1920"
     inkscape:window-height="1027"
     inkscape:window-x="-8"
     inkscape:window-y="22"
     inkscape:window-maximized="1"
     inkscape:current-layer="svg16" />
  <path
     id="rect692"
     style="fill:#ffffff"
     inkscape:label="rect692"
     d="M 100 0 C 44.600055 0 0 44.600055 0 100 L 0 412 C 0 467.39994 44.600055 512 100 512 L 412 512 C 467.39994 512 512 467.39994 512 412 L 512 100 C 512 44.600055 467.39994 0 412 0 L 100 0 z M 120 50 L 392 50 C 430.77996 50 462 81.220039 462 120 L 462 392 C 462 430.77996 430.77996 462 392 462 L 120 462 C 81.220039 462 50 430.77996 50 392 L 50 120 C 50 81.220039 81.220039 50 120 50 z M 237.875 148.125 C 223.00001 148.25 207.99999 149.5 201 153 C 194.00001 157 190 164 193 165 C 196 165 205 166.00001 210 172 C 217.99999 184.99999 218.99999 247.00001 208 253 C 193.00001 263.99999 154.99999 190.99998 146 167 C 144 161.00001 140.99999 160 134 158 L 79 158 C 73.000006 158 64.000004 159.00001 68 171 C 94.999973 226.99994 151.0001 364 252 363 L 274 363 C 279 362 288 359.99999 288 348 C 288 348 287.00001 318 301 314 C 314.99999 310 333.00002 343.00001 352 356 C 365.99999 364.99999 377 364 377 364 L 428 363 C 428 363 453.99999 360.99998 442 340 C 441 338 432.99997 324.99997 403 298 C 372.00003 268.00003 377.00004 272.99995 414 222 C 436.99998 191.00003 447 171.99999 444 165 C 440 158.00001 424 159 424 159 L 367 159 C 361.00001 159 358 160 355 165 C 355 165 345.99999 190.00002 334 210 C 309.00002 252.99996 299 255 294 252 C 285.00001 247 287 227.99999 287 215 C 287 170.00005 293.99998 154 274 150 C 267.50001 149 252.74999 148 237.875 148.125 z " />
</svg>
